PERFORMER "Steve Angello & Sebastian Ingrosso"
TITLE "Essential Mix (2005-09-25)"
FILE "Steve Angello & Sebastian Ingrosso - Essential Mix (25.09.2005).mp3" MP3
  TRACK 01 AUDIO
    PERFORMER "Ian Carey & Mochico feat. Miss Bunty"
    TITLE "'Say What You Want' (Ian Carey Dub Mix)"
    INDEX 01 00:00:00
  TRACK 02 AUDIO
    PERFORMER "Steve Angello & Sebastian Ingrosso"
    TITLE "82-83"
    INDEX 01 07:16:00
  TRACK 03 AUDIO
    PERFORMER "Philippe B"
    TITLE "Can U Feel It"
    INDEX 01 14:27:30
  TRACK 04 AUDIO
    PERFORMER "Steve Angello"
    TITLE "Chord"
    INDEX 01 19:04:20
  TRACK 05 AUDIO
    PERFORMER "Who's Who"
    TITLE "Not So Dirty"
    INDEX 01 25:17:10
  TRACK 06 AUDIO
    PERFORMER "Ernesto & Bastian"
    TITLE "Darkside Of Th Moon (Axwell & Sebastian Ingrosso Re-Mod)"
    INDEX 01 29:53:05
  TRACK 07 AUDIO
    PERFORMER "Booka Shade"
    TITLE "Mandarine Girl"
    INDEX 01 34:58:65
  TRACK 08 AUDIO
    PERFORMER "Style Of Eye"
    TITLE "ID"
    INDEX 01 42:20:30
  TRACK 09 AUDIO
    PERFORMER "Digitalism"
    TITLE "The Count"
    INDEX 01 47:03:60
  TRACK 10 AUDIO
    PERFORMER "Buy Now"
    TITLE "For Sale"
    INDEX 01 50:32:30
  TRACK 11 AUDIO
    PERFORMER "Morillo, Romero & Nunez"
    TITLE "Dancin (Angello & Ingrosso's Metallica Is Dancin Booty)"
    INDEX 01 55:53:00
  TRACK 12 AUDIO
    PERFORMER "Tiefschwarz feat. Chikinki"
    TITLE "Wait & See (Alter Ego Remix)"
    INDEX 01 61:06:00
  TRACK 13 AUDIO
    PERFORMER "Mad 8"
    TITLE "Work This Pussy (JD's Booty Mix)"
    INDEX 01 65:05:65
  TRACK 14 AUDIO
    PERFORMER "Buy Now"
    TITLE "Sold"
    INDEX 01 74:24:00
  TRACK 15 AUDIO
    PERFORMER "MBG & SDS"
    TITLE "New Jack (Steve Angello Remix)"
    INDEX 01 80:07:40
  TRACK 16 AUDIO
    PERFORMER "Royksopp"
    TITLE "49 Percent (Steve Angello & Sebastian Ingrosso Remix)"
    INDEX 01 85:48:30
  TRACK 17 AUDIO
    PERFORMER "Steve Angello"
    TITLE "Teasing Mr.Charlie"
    INDEX 01 94:40:10
  TRACK 18 AUDIO
    PERFORMER "Steve Lawler"
    TITLE "That Sound (Steve Angello & Sebastian Ingrosso Remix)"
    INDEX 01 99:58:25
  TRACK 19 AUDIO
    PERFORMER "Chemical Brothers"
    TITLE "Hey Girl Hey Boy"
    INDEX 01 105:03:00
  TRACK 20 AUDIO
    PERFORMER "Eurythmics"
    TITLE "Sweet Dreams (Steve Angello's Bootleg Mix)"
    INDEX 01 109:42:70
  TRACK 21 AUDIO
    PERFORMER "Daft Punk"
    TITLE "Alive"
    INDEX 01 114:37:00